<?xml version="1.0" encoding="UTF-8" standalone="no"?>
<!-- Created with Inkscape (http://www.inkscape.org/) -->

<svg
   width="39.6875mm"
   height="39.687519mm"
   viewBox="0 0 39.6875 39.687519"
   version="1.1"
   id="svg1"
   xml:space="preserve"
   inkscape:version="1.4.2 (f4327f4, 2025-05-13)"
   sodipodi:docname="favicon.svg"
   xmlns:inkscape="http://www.inkscape.org/namespaces/inkscape"
   xmlns:sodipodi="http://sodipodi.sourceforge.net/DTD/sodipodi-0.dtd"
   xmlns="http://www.w3.org/2000/svg"
   xmlns:svg="http://www.w3.org/2000/svg"><sodipodi:namedview
     id="namedview1"
     pagecolor="#ffffff"
     bordercolor="#666666"
     borderopacity="1.0"
     inkscape:showpageshadow="2"
     inkscape:pageopacity="0.0"
     inkscape:pagecheckerboard="0"
     inkscape:deskcolor="#d1d1d1"
     inkscape:document-units="mm"
     inkscape:zoom="2.0792509"
     inkscape:cx="102.92168"
     inkscape:cy="53.625083"
     inkscape:window-width="2560"
     inkscape:window-height="1369"
     inkscape:window-x="-8"
     inkscape:window-y="-8"
     inkscape:window-maximized="1"
     inkscape:current-layer="layer1" /><defs
     id="defs1" /><g
     inkscape:label="Layer 1"
     inkscape:groupmode="layer"
     id="layer1"
     transform="translate(-29.183507,-191.43161)"><g
       id="g1"
       transform="matrix(0.55974096,0,0,0.55974096,12.848303,84.279496)"><path
         id="path58"
         style="fill:#e9e9e9;fill-opacity:1;stroke:none;stroke-width:1.27783;stroke-linecap:round;stroke-linejoin:round;stroke-opacity:1;paint-order:markers fill stroke"
         d="M 100.08684,226.88333 A 35.45166,35.45166 0 0 1 64.635175,262.33498 35.45166,35.45166 0 0 1 29.183507,226.88333 35.45166,35.45166 0 0 1 64.635175,191.43161 35.45166,35.45166 0 0 1 100.08684,226.88333 Z" /><path
         id="path11"
         style="fill:#1a57b0;fill-opacity:1;stroke-width:0.130371;stroke-linecap:round;stroke-linejoin:round;paint-order:markers fill stroke"
         d="m 63.101177,211.43048 a 3.6169495,3.6169495 0 0 1 -3.616949,3.61694 3.6169495,3.6169495 0 0 1 -3.61695,-3.61694 3.6169495,3.6169495 0 0 1 3.61695,-3.61696 3.6169495,3.6169495 0 0 1 3.616949,3.61696 z" /><path
         id="path7"
         style="fill:#1a57b0;fill-opacity:1;stroke-width:0.130371;stroke-linecap:round;stroke-linejoin:round;paint-order:markers fill stroke"
         d="m 52.799294,211.43048 a 3.6169495,3.6169495 0 0 1 -3.616949,3.61694 3.6169495,3.6169495 0 0 1 -3.61695,-3.61694 3.6169495,3.6169495 0 0 1 3.61695,-3.61696 3.6169495,3.6169495 0 0 1 3.616949,3.61696 z" /><path
         id="path12"
         style="fill:#144691;fill-opacity:1;stroke-width:0.130371;stroke-linecap:round;stroke-linejoin:round;paint-order:markers fill stroke"
         d="m 73.403061,211.43048 a 3.6169495,3.6169495 0 0 1 -3.61695,3.61694 3.6169495,3.6169495 0 0 1 -3.61695,-3.61694 3.6169495,3.6169495 0 0 1 3.61695,-3.61696 3.6169495,3.6169495 0 0 1 3.61695,3.61696 z" /><path
         id="path14"
         style="fill:#4788e4;fill-opacity:1;stroke-width:0.0972747;stroke-linecap:round;stroke-linejoin:round;paint-order:markers fill stroke"
         d="m 63.490602,223.03998 a 2.6987513,2.6987513 0 0 1 -2.698756,2.69874 2.6987513,2.6987513 0 0 1 -2.698753,-2.69874 2.6987513,2.6987513 0 0 1 2.698753,-2.69876 2.6987513,2.6987513 0 0 1 2.698756,2.69876 z" /><path
         id="path15"
         style="fill:#144691;fill-opacity:1;stroke-width:0.130371;stroke-linecap:round;stroke-linejoin:round;paint-order:markers fill stroke"
         d="m 52.799294,221.73236 a 3.6169495,3.6169495 0 0 1 -3.616949,3.61695 3.6169495,3.6169495 0 0 1 -3.61695,-3.61695 3.6169495,3.6169495 0 0 1 3.61695,-3.61696 3.6169495,3.6169495 0 0 1 3.616949,3.61696 z" /><path
         id="path16"
         style="fill:#7caaef;fill-opacity:1;stroke-width:0.0972747;stroke-linecap:round;stroke-linejoin:round;paint-order:markers fill stroke"
         d="m 71.177242,223.03998 a 2.6987513,2.6987513 0 0 1 -2.69875,2.69874 2.6987513,2.6987513 0 0 1 -2.698751,-2.69874 2.6987513,2.6987513 0 0 1 2.698751,-2.69876 2.6987513,2.6987513 0 0 1 2.69875,2.69876 z" /><path
         id="path17"
         style="fill:#1a57b0;fill-opacity:1;stroke-width:0.130371;stroke-linecap:round;stroke-linejoin:round;paint-order:markers fill stroke"
         d="m 83.704948,221.73236 a 3.6169495,3.6169495 0 0 1 -3.616956,3.61695 3.6169495,3.6169495 0 0 1 -3.616947,-3.61695 3.6169495,3.6169495 0 0 1 3.616947,-3.61696 3.6169495,3.6169495 0 0 1 3.616956,3.61696 z" /><path
         id="path18"
         style="fill:#7caaef;fill-opacity:1;stroke-width:0.0972747;stroke-linecap:round;stroke-linejoin:round;paint-order:markers fill stroke"
         d="m 63.490599,230.72662 a 2.6987513,2.6987513 0 0 1 -2.698756,2.69875 2.6987513,2.6987513 0 0 1 -2.69875,-2.69875 2.6987513,2.6987513 0 0 1 2.69875,-2.69875 2.6987513,2.6987513 0 0 1 2.698756,2.69875 z" /><path
         id="path19"
         style="fill:#1a57b0;fill-opacity:1;stroke-width:0.130371;stroke-linecap:round;stroke-linejoin:round;paint-order:markers fill stroke"
         d="m 52.799291,232.03424 a 3.6169495,3.6169495 0 0 1 -3.616948,3.61695 3.6169495,3.6169495 0 0 1 -3.616948,-3.61695 3.6169495,3.6169495 0 0 1 3.616948,-3.61696 3.6169495,3.6169495 0 0 1 3.616948,3.61696 z" /><path
         id="path20"
         style="fill:#4788e4;fill-opacity:1;stroke-width:0.0972747;stroke-linecap:round;stroke-linejoin:round;paint-order:markers fill stroke"
         d="m 71.177242,230.72662 a 2.6987513,2.6987513 0 0 1 -2.69875,2.69875 2.6987513,2.6987513 0 0 1 -2.698751,-2.69875 2.6987513,2.6987513 0 0 1 2.698751,-2.69875 2.6987513,2.6987513 0 0 1 2.69875,2.69875 z" /><path
         id="path21"
         style="fill:#144691;fill-opacity:1;stroke-width:0.130371;stroke-linecap:round;stroke-linejoin:round;paint-order:markers fill stroke"
         d="m 83.704948,232.03424 a 3.6169495,3.6169495 0 0 1 -3.616956,3.61695 3.6169495,3.6169495 0 0 1 -3.616947,-3.61695 3.6169495,3.6169495 0 0 1 3.616947,-3.61696 3.6169495,3.6169495 0 0 1 3.616956,3.61696 z" /><path
         id="path22"
         style="fill:#144691;fill-opacity:1;stroke-width:0.130371;stroke-linecap:round;stroke-linejoin:round;paint-order:markers fill stroke"
         d="m 63.101181,242.33612 a 3.6169495,3.6169495 0 0 1 -3.616955,3.61695 3.6169495,3.6169495 0 0 1 -3.616948,-3.61695 3.6169495,3.6169495 0 0 1 3.616948,-3.61695 3.6169495,3.6169495 0 0 1 3.616955,3.61695 z" /><path
         id="path24"
         style="fill:#1a57b0;fill-opacity:1;stroke-width:0.130371;stroke-linecap:round;stroke-linejoin:round;paint-order:markers fill stroke"
         d="m 73.403057,242.33612 a 3.6169495,3.6169495 0 0 1 -3.616948,3.61695 3.6169495,3.6169495 0 0 1 -3.616948,-3.61695 3.6169495,3.6169495 0 0 1 3.616948,-3.61695 3.6169495,3.6169495 0 0 1 3.616948,3.61695 z" /><path
         id="path25"
         style="fill:#1a57b0;fill-opacity:1;stroke-width:0.130371;stroke-linecap:round;stroke-linejoin:round;paint-order:markers fill stroke"
         d="m 83.704948,242.33612 a 3.6169495,3.6169495 0 0 1 -3.616956,3.61695 3.6169495,3.6169495 0 0 1 -3.616947,-3.61695 3.6169495,3.6169495 0 0 1 3.616947,-3.61695 3.6169495,3.6169495 0 0 1 3.616956,3.61695 z" /></g></g></svg>
